<svg width="62" height="62" viewBox="0 0 62 62" fill="none" xmlns="http://www.w3.org/2000/svg">
<g id="&#240;&#159;&#166;&#134; icon &#34;chevron circle left alt&#34;">
<path id="Vector" d="M30.6777 0.000114441C36.7452 9.53674e-05 42.6764 1.7993 47.7213 5.1702C52.7663 8.5411 56.6983 13.3323 59.0203 18.9379C61.3422 24.5435 61.9497 30.7118 60.766 36.6627C59.5823 42.6136 56.6605 48.0798 52.3701 52.3702C46.6169 58.1234 38.8139 61.3555 30.6777 61.3555C22.5415 61.3555 14.7385 58.1234 8.98529 52.3702C3.23211 46.617 -3.8147e-06 38.814 -3.8147e-06 30.6778C-3.8147e-06 22.5415 3.23211 14.7385 8.98529 8.98534C11.8274 6.12774 15.208 3.86221 18.9315 2.31989C22.655 0.777576 26.6474 -0.0108986 30.6777 0.000114441ZM30.6777 57.265C45.3379 57.265 57.265 45.338 57.265 30.6778C57.265 16.0176 45.3379 4.09047 30.6777 4.09047C16.0175 4.09047 4.09042 16.0176 4.09042 30.6778C4.09042 45.338 16.0175 57.265 30.6777 57.265Z" fill="#8F8989"/>
<path id="Vector_2" d="M27.011 14.9149L42.7734 30.6772L27.011 46.4395L24.1189 43.5473L36.9888 30.6772L24.1189 17.807L27.011 14.9149Z" fill="#8F8989"/>
</g>
</svg>
