<svg width="62" height="62" viewBox="0 0 62 62" fill="none" xmlns="http://www.w3.org/2000/svg">
<g id="&#240;&#159;&#166;&#134; icon &#34;chevron circle left alt&#34;">
<path id="Vector" d="M30.6778 61.3554C24.6103 61.3554 18.6791 59.5562 13.6341 56.1853C8.58919 52.8144 4.65714 48.0232 2.33522 42.4175C0.0132895 36.8119 -0.59423 30.6437 0.589481 24.6928C1.77319 18.7419 4.69497 13.2756 8.98534 8.98529C14.7385 3.23211 22.5415 -6.06197e-08 30.6778 0C38.814 6.06197e-08 46.617 3.23211 52.3702 8.98529C58.1234 14.7385 61.3555 22.5415 61.3555 30.6777C61.3555 38.8139 58.1234 46.6169 52.3702 52.3701C49.5281 55.2277 46.1475 57.4933 42.424 59.0356C38.7005 60.5779 34.708 61.3664 30.6778 61.3554ZM30.6778 4.09042C16.0175 4.09042 4.09046 16.0175 4.09046 30.6777C4.09046 45.3379 16.0175 57.265 30.6778 57.265C45.338 57.265 57.2651 45.3379 57.2651 30.6777C57.2651 16.0175 45.338 4.09042 30.6778 4.09042Z" fill="#969090"/>
<path id="Vector_2" d="M34.3445 46.4406L18.5821 30.6783L34.3445 14.916L37.2366 17.8082L24.3667 30.6783L37.2366 43.5485L34.3445 46.4406Z" fill="#969090"/>
</g>
</svg>
